<svg width="173" height="74" viewBox="0 0 173 74" fill="none" xmlns="http://www.w3.org/2000/svg">
<path d="M12.0098 36.5957C12.7689 36.5957 13.4421 36.4525 14.0293 36.166C14.6165 35.8652 15.0749 35.4499 15.4043 34.9199C15.748 34.3757 15.9271 33.7383 15.9414 33.0078H21.7637C21.7493 34.6406 21.3125 36.0944 20.4531 37.3691C19.5938 38.6296 18.4408 39.625 16.9941 40.3555C15.5475 41.0716 13.929 41.4297 12.1387 41.4297C10.334 41.4297 8.75846 41.1289 7.41211 40.5273C6.08008 39.9258 4.97005 39.0951 4.08203 38.0352C3.19401 36.9609 2.52799 35.7148 2.08398 34.2969C1.63997 32.8646 1.41797 31.332 1.41797 29.6992V29.0762C1.41797 27.429 1.63997 25.8965 2.08398 24.4785C2.52799 23.0462 3.19401 21.8001 4.08203 20.7402C4.97005 19.666 6.08008 18.8281 7.41211 18.2266C8.74414 17.625 10.3053 17.3242 12.0957 17.3242C14.0007 17.3242 15.6693 17.6895 17.1016 18.4199C18.5482 19.1504 19.6797 20.196 20.4961 21.5566C21.3268 22.903 21.7493 24.5 21.7637 26.3477H15.9414C15.9271 25.5742 15.7624 24.8724 15.4473 24.2422C15.1465 23.612 14.7025 23.1107 14.1152 22.7383C13.5423 22.3516 12.8333 22.1582 11.9883 22.1582C11.0859 22.1582 10.3483 22.3516 9.77539 22.7383C9.20247 23.1107 8.75846 23.6263 8.44336 24.2852C8.12826 24.9297 7.90625 25.6673 7.77734 26.498C7.66276 27.3145 7.60547 28.1738 7.60547 29.0762V29.6992C7.60547 30.6016 7.66276 31.4681 7.77734 32.2988C7.89193 33.1296 8.10677 33.8672 8.42188 34.5117C8.7513 35.1562 9.20247 35.6647 9.77539 36.0371C10.3483 36.4095 11.0931 36.5957 12.0098 36.5957ZM39.1016 35.4355V17.7539H45.2891V41H39.4668L39.1016 35.4355ZM39.7891 30.666L41.6152 30.623C41.6152 32.1699 41.4362 33.6094 41.0781 34.9414C40.7201 36.2591 40.1829 37.4049 39.4668 38.3789C38.7507 39.3385 37.8483 40.0905 36.7598 40.6348C35.6712 41.1647 34.3893 41.4297 32.9141 41.4297C31.7826 41.4297 30.737 41.2721 29.7773 40.957C28.832 40.6276 28.0156 40.1191 27.3281 39.4316C26.6549 38.7298 26.125 37.8346 25.7383 36.7461C25.3659 35.6432 25.1797 34.3184 25.1797 32.7715V17.7539H31.3672V32.8145C31.3672 33.502 31.446 34.082 31.6035 34.5547C31.7754 35.0273 32.0117 35.4141 32.3125 35.7148C32.6133 36.0156 32.9642 36.2305 33.3652 36.3594C33.7806 36.4883 34.2389 36.5527 34.7402 36.5527C36.015 36.5527 37.0176 36.2949 37.748 35.7793C38.4928 35.2637 39.0156 34.5618 39.3164 33.6738C39.6315 32.7715 39.7891 31.7689 39.7891 30.666ZM56.2031 22.8242V41H50.0156V17.7539H55.8379L56.2031 22.8242ZM63.207 17.6035L63.0996 23.3398C62.7988 23.2969 62.4336 23.2611 62.0039 23.2324C61.5885 23.1895 61.209 23.168 60.8652 23.168C59.9915 23.168 59.2324 23.2826 58.5879 23.5117C57.9577 23.7266 57.4277 24.0488 56.998 24.4785C56.5827 24.9082 56.2676 25.431 56.0527 26.0469C55.8522 26.6628 55.7376 27.3646 55.709 28.1523L54.4629 27.7656C54.4629 26.2617 54.6133 24.8796 54.9141 23.6191C55.2148 22.3444 55.6517 21.2344 56.2246 20.2891C56.8118 19.3438 57.528 18.6133 58.373 18.0977C59.2181 17.582 60.1849 17.3242 61.2734 17.3242C61.6172 17.3242 61.9681 17.3529 62.3262 17.4102C62.6842 17.4531 62.9779 17.5176 63.207 17.6035ZM72.3164 22.8242V41H66.1289V17.7539H71.9512L72.3164 22.8242ZM79.3203 17.6035L79.2129 23.3398C78.9121 23.2969 78.5469 23.2611 78.1172 23.2324C77.7018 23.1895 77.3223 23.168 76.9785 23.168C76.1048 23.168 75.3457 23.2826 74.7012 23.5117C74.071 23.7266 73.541 24.0488 73.1113 24.4785C72.696 24.9082 72.3809 25.431 72.166 26.0469C71.9655 26.6628 71.8509 27.3646 71.8223 28.1523L70.5762 27.7656C70.5762 26.2617 70.7266 24.8796 71.0273 23.6191C71.3281 22.3444 71.765 21.2344 72.3379 20.2891C72.9251 19.3438 73.6413 18.6133 74.4863 18.0977C75.3314 17.582 76.2982 17.3242 77.3867 17.3242C77.7305 17.3242 78.0814 17.3529 78.4395 17.4102C78.7975 17.4531 79.0911 17.5176 79.3203 17.6035ZM92.5117 41.4297C90.707 41.4297 89.0885 41.1432 87.6562 40.5703C86.224 39.9831 85.0065 39.1738 84.0039 38.1426C83.0156 37.1113 82.2565 35.9154 81.7266 34.5547C81.1966 33.1797 80.9316 31.7188 80.9316 30.1719V29.3125C80.9316 27.5508 81.1823 25.9395 81.6836 24.4785C82.1849 23.0176 82.901 21.75 83.832 20.6758C84.7773 19.6016 85.9232 18.778 87.2695 18.2051C88.6159 17.6178 90.1341 17.3242 91.8242 17.3242C93.4714 17.3242 94.9323 17.5964 96.207 18.1406C97.4818 18.6849 98.5488 19.4583 99.4082 20.4609C100.282 21.4635 100.941 22.6667 101.385 24.0703C101.829 25.4596 102.051 27.0065 102.051 28.7109V31.2891H83.5742V27.1641H95.9707V26.6914C95.9707 25.832 95.8132 25.0658 95.498 24.3926C95.1973 23.7051 94.7389 23.1608 94.123 22.7598C93.5072 22.3587 92.7194 22.1582 91.7598 22.1582C90.9434 22.1582 90.2415 22.3372 89.6543 22.6953C89.0671 23.0534 88.5872 23.5547 88.2148 24.1992C87.8568 24.8438 87.5846 25.6029 87.3984 26.4766C87.2266 27.3359 87.1406 28.2812 87.1406 29.3125V30.1719C87.1406 31.1029 87.2695 31.9622 87.5273 32.75C87.7995 33.5378 88.179 34.2181 88.666 34.791C89.1673 35.3639 89.7689 35.8079 90.4707 36.123C91.1868 36.4382 91.9961 36.5957 92.8984 36.5957C94.0156 36.5957 95.054 36.3809 96.0137 35.9512C96.9876 35.5072 97.8255 34.8411 98.5273 33.9531L101.535 37.2188C101.048 37.9206 100.382 38.5938 99.5371 39.2383C98.7064 39.8828 97.7038 40.4128 96.5293 40.8281C95.3548 41.2292 94.0156 41.4297 92.5117 41.4297ZM111.633 22.7168V41H105.445V17.7539H111.246L111.633 22.7168ZM110.73 28.5605H109.055C109.055 26.8418 109.277 25.2949 109.721 23.9199C110.165 22.5306 110.788 21.349 111.59 20.375C112.392 19.3867 113.344 18.6348 114.447 18.1191C115.564 17.5892 116.811 17.3242 118.186 17.3242C119.274 17.3242 120.27 17.4818 121.172 17.7969C122.074 18.112 122.848 18.6133 123.492 19.3008C124.151 19.9883 124.652 20.8978 124.996 22.0293C125.354 23.1608 125.533 24.543 125.533 26.1758V41H119.303V26.1543C119.303 25.123 119.16 24.321 118.873 23.748C118.587 23.1751 118.164 22.7741 117.605 22.5449C117.061 22.3014 116.388 22.1797 115.586 22.1797C114.755 22.1797 114.032 22.3444 113.416 22.6738C112.814 23.0033 112.313 23.4616 111.912 24.0488C111.525 24.6217 111.232 25.2949 111.031 26.0684C110.831 26.8418 110.73 27.6725 110.73 28.5605ZM139.842 36.5957C140.601 36.5957 141.274 36.4525 141.861 36.166C142.449 35.8652 142.907 35.4499 143.236 34.9199C143.58 34.3757 143.759 33.7383 143.773 33.0078H149.596C149.581 34.6406 149.145 36.0944 148.285 37.3691C147.426 38.6296 146.273 39.625 144.826 40.3555C143.38 41.0716 141.761 41.4297 139.971 41.4297C138.166 41.4297 136.59 41.1289 135.244 40.5273C133.912 39.9258 132.802 39.0951 131.914 38.0352C131.026 36.9609 130.36 35.7148 129.916 34.2969C129.472 32.8646 129.25 31.332 129.25 29.6992V29.0762C129.25 27.429 129.472 25.8965 129.916 24.4785C130.36 23.0462 131.026 21.8001 131.914 20.7402C132.802 19.666 133.912 18.8281 135.244 18.2266C136.576 17.625 138.137 17.3242 139.928 17.3242C141.833 17.3242 143.501 17.6895 144.934 18.4199C146.38 19.1504 147.512 20.196 148.328 21.5566C149.159 22.903 149.581 24.5 149.596 26.3477H143.773C143.759 25.5742 143.594 24.8724 143.279 24.2422C142.979 23.612 142.535 23.1107 141.947 22.7383C141.374 22.3516 140.665 22.1582 139.82 22.1582C138.918 22.1582 138.18 22.3516 137.607 22.7383C137.035 23.1107 136.59 23.6263 136.275 24.2852C135.96 24.9297 135.738 25.6673 135.609 26.498C135.495 27.3145 135.438 28.1738 135.438 29.0762V29.6992C135.438 30.6016 135.495 31.4681 135.609 32.2988C135.724 33.1296 135.939 33.8672 136.254 34.5117C136.583 35.1562 137.035 35.6647 137.607 36.0371C138.18 36.4095 138.925 36.5957 139.842 36.5957ZM160.08 38.3789L166.246 17.7539H172.885L163.539 44.502C163.339 45.0892 163.066 45.7194 162.723 46.3926C162.393 47.0658 161.942 47.7031 161.369 48.3047C160.811 48.9206 160.102 49.4219 159.242 49.8086C158.397 50.1953 157.359 50.3887 156.127 50.3887C155.54 50.3887 155.06 50.3529 154.688 50.2812C154.315 50.2096 153.871 50.1094 153.355 49.9805V45.4473C153.513 45.4473 153.678 45.4473 153.85 45.4473C154.021 45.4616 154.186 45.4688 154.344 45.4688C155.16 45.4688 155.826 45.3757 156.342 45.1895C156.857 45.0033 157.273 44.7168 157.588 44.3301C157.903 43.9577 158.154 43.4707 158.34 42.8691L160.08 38.3789ZM157.502 17.7539L162.551 34.5977L163.432 41.1504L159.221 41.6016L150.863 17.7539H157.502Z" fill="#00A868"/>
<path d="M0 56H126" stroke="#00AB63" stroke-opacity="0.39" stroke-width="4"/>
<path d="M146.088 55.4922V69H143.76L137.702 59.3237V69H135.373V55.4922H137.702L143.778 65.187V55.4922H146.088ZM148.213 64.0923V63.8789C148.213 63.1553 148.318 62.4842 148.528 61.8657C148.739 61.241 149.042 60.6999 149.438 60.2422C149.84 59.7783 150.328 59.4196 150.903 59.166C151.485 58.9062 152.14 58.7764 152.87 58.7764C153.606 58.7764 154.262 58.9062 154.837 59.166C155.418 59.4196 155.91 59.7783 156.312 60.2422C156.714 60.6999 157.02 61.241 157.23 61.8657C157.441 62.4842 157.546 63.1553 157.546 63.8789V64.0923C157.546 64.8159 157.441 65.487 157.23 66.1055C157.02 66.724 156.714 67.2651 156.312 67.729C155.91 68.1867 155.421 68.5454 154.846 68.8052C154.271 69.0588 153.618 69.1855 152.889 69.1855C152.153 69.1855 151.494 69.0588 150.913 68.8052C150.337 68.5454 149.849 68.1867 149.447 67.729C149.045 67.2651 148.739 66.724 148.528 66.1055C148.318 65.487 148.213 64.8159 148.213 64.0923ZM150.449 63.8789V64.0923C150.449 64.5438 150.495 64.9705 150.588 65.3726C150.681 65.7746 150.826 66.1271 151.024 66.4302C151.222 66.7332 151.475 66.9714 151.785 67.1445C152.094 67.3177 152.462 67.4043 152.889 67.4043C153.303 67.4043 153.662 67.3177 153.965 67.1445C154.274 66.9714 154.528 66.7332 154.726 66.4302C154.924 66.1271 155.069 65.7746 155.162 65.3726C155.261 64.9705 155.31 64.5438 155.31 64.0923V63.8789C155.31 63.4336 155.261 63.013 155.162 62.6172C155.069 62.2152 154.92 61.8595 154.716 61.5503C154.518 61.241 154.265 60.9998 153.956 60.8267C153.653 60.6473 153.291 60.5576 152.87 60.5576C152.45 60.5576 152.085 60.6473 151.775 60.8267C151.472 60.9998 151.222 61.241 151.024 61.5503C150.826 61.8595 150.681 62.2152 150.588 62.6172C150.495 63.013 150.449 63.4336 150.449 63.8789ZM162.147 66.7734L164.467 58.9619H165.896L165.506 61.2998L163.168 69H161.888L162.147 66.7734ZM160.784 58.9619L162.593 66.8105L162.741 69H161.312L158.594 58.9619H160.784ZM168.066 66.7178L169.82 58.9619H172L169.291 69H167.862L168.066 66.7178ZM166.137 58.9619L168.428 66.6807L168.716 69H167.436L165.07 61.2905L164.68 58.9619H166.137Z" fill="#00AB63"/>
</svg>
